<?xml version="1.0" standalone="no"?>
<svg xmlns="http://www.w3.org/2000/svg" xmlns:xlink="http://www.w3.org/1999/xlink" width="687pt" height="155pt" viewBox="0.00 0.00 686.63 155.00">
<g id="graph0" class="graph" transform="translate(4,151) scale(1)" data-name="DoxaPipeline">

<polygon fill="white" stroke="none" points="-4,4 -4,-151 682.63,-151 682.63,4 -4,4" style=""/>
<g id="clust1" class="cluster" data-name="cluster_backends">

<path fill="none" stroke="black" d="M566.65,-8C566.65,-8 658.63,-8 658.63,-8 664.63,-8 670.63,-14 670.63,-20 670.63,-20 670.63,-127 670.63,-127 670.63,-133 664.63,-139 658.63,-139 658.63,-139 566.65,-139 566.65,-139 560.65,-139 554.65,-133 554.65,-127 554.65,-127 554.65,-20 554.65,-20 554.65,-14 560.65,-8 566.65,-8" style=""/>
<text text-anchor="middle" x="612.64" y="-122.4" font-family="Times,serif" font-size="14.00" style="">Backends</text>
</g>
<!-- doxa -->
<g id="node1" class="node" pointer-events="visible" data-name="doxa">

<path fill="none" stroke="black" d="M76.55,-81.6C76.55,-81.6 12.15,-81.6 12.15,-81.6 6.15,-81.6 0.15,-75.6 0.15,-69.6 0.15,-69.6 0.15,-52.4 0.15,-52.4 0.15,-46.4 6.15,-40.4 12.15,-40.4 12.15,-40.4 76.55,-40.4 76.55,-40.4 82.55,-40.4 88.55,-46.4 88.55,-52.4 88.55,-52.4 88.55,-69.6 88.55,-69.6 88.55,-75.6 82.55,-81.6 76.55,-81.6" style=""/>
<text text-anchor="middle" x="44.35" y="-65.2" font-family="Times,serif" font-size="14.00" style="">Doxa Source</text>
<text text-anchor="middle" x="44.35" y="-48.4" font-family="Times,serif" font-size="14.00" style="">(*.doxa)</text>
</g>
<!-- tokenizer -->
<g id="node2" class="node" pointer-events="visible" data-name="tokenizer">

<path fill="none" stroke="black" d="M185.32,-79C185.32,-79 136.83,-79 136.83,-79 130.83,-79 124.83,-73 124.83,-67 124.83,-67 124.83,-55 124.83,-55 124.83,-49 130.83,-43 136.83,-43 136.83,-43 185.32,-43 185.32,-43 191.32,-43 197.32,-49 197.32,-55 197.32,-55 197.32,-67 197.32,-67 197.32,-73 191.32,-79 185.32,-79" style=""/>
<text text-anchor="middle" x="161.07" y="-56.8" font-family="Times,serif" font-size="14.00" style="">Tokenizer</text>
</g>
<!-- doxa&#45;&gt;tokenizer -->
<g id="edge1" class="edge" data-name="doxa-&gt;tokenizer">

<path fill="none" stroke="black" d="M89.05,-61C96.96,-61 105.24,-61 113.24,-61" style=""/>
<polygon fill="black" stroke="black" points="113.17,-64.5 123.17,-61 113.17,-57.5 113.17,-64.5" style=""/>
</g>
<!-- parser -->
<g id="node3" class="node" pointer-events="visible" data-name="parser">

<path fill="none" stroke="black" d="M275.45,-79C275.45,-79 245.45,-79 245.45,-79 239.45,-79 233.45,-73 233.45,-67 233.45,-67 233.45,-55 233.45,-55 233.45,-49 239.45,-43 245.45,-43 245.45,-43 275.45,-43 275.45,-43 281.45,-43 287.45,-49 287.45,-55 287.45,-55 287.45,-67 287.45,-67 287.45,-73 281.45,-79 275.45,-79" style=""/>
<text text-anchor="middle" x="260.45" y="-56.8" font-family="Times,serif" font-size="14.00" style="">Parser</text>
</g>
<!-- tokenizer&#45;&gt;parser -->
<g id="edge2" class="edge" data-name="tokenizer-&gt;parser">

<path fill="none" stroke="black" d="M197.78,-61C205.56,-61 213.83,-61 221.69,-61" style=""/>
<polygon fill="black" stroke="black" points="221.69,-64.5 231.69,-61 221.69,-57.5 221.69,-64.5" style=""/>
</g>
<!-- ast -->
<g id="node4" class="node" pointer-events="visible" data-name="ast">

<path fill="none" stroke="black" d="M365.45,-79C365.45,-79 335.45,-79 335.45,-79 329.45,-79 323.45,-73 323.45,-67 323.45,-67 323.45,-55 323.45,-55 323.45,-49 329.45,-43 335.45,-43 335.45,-43 365.45,-43 365.45,-43 371.45,-43 377.45,-49 377.45,-55 377.45,-55 377.45,-67 377.45,-67 377.45,-73 371.45,-79 365.45,-79" style=""/>
<text text-anchor="middle" x="350.45" y="-56.8" font-family="Times,serif" font-size="14.00" style="">AST</text>
</g>
<!-- parser&#45;&gt;ast -->
<g id="edge3" class="edge" data-name="parser-&gt;ast">

<path fill="none" stroke="black" d="M287.85,-61C295.33,-61 303.63,-61 311.64,-61" style=""/>
<polygon fill="black" stroke="black" points="311.55,-64.5 321.55,-61 311.55,-57.5 311.55,-64.5" style=""/>
</g>
<!-- soxa -->
<g id="node5" class="node" pointer-events="visible" data-name="soxa">

<path fill="none" stroke="black" d="M514.75,-79C514.75,-79 425.35,-79 425.35,-79 419.35,-79 413.35,-73 413.35,-67 413.35,-67 413.35,-55 413.35,-55 413.35,-49 419.35,-43 425.35,-43 425.35,-43 514.75,-43 514.75,-43 520.75,-43 526.75,-49 526.75,-55 526.75,-55 526.75,-67 526.75,-67 526.75,-73 520.75,-79 514.75,-79" style=""/>
<text text-anchor="middle" x="470.05" y="-56.8" font-family="Times,serif" font-size="14.00" style="">Soxa (stack HIR)</text>
</g>
<!-- ast&#45;&gt;soxa -->
<g id="edge4" class="edge" data-name="ast-&gt;soxa">

<path fill="none" stroke="black" d="M377.84,-61C385.01,-61 393.11,-61 401.46,-61" style=""/>
<polygon fill="black" stroke="black" points="401.41,-64.5 411.41,-61 401.41,-57.5 401.41,-64.5" style=""/>
</g>
<!-- llvm -->
<g id="node6" class="node" pointer-events="visible" data-name="llvm">

<path fill="none" stroke="black" d="M650.63,-106C650.63,-106 574.65,-106 574.65,-106 568.65,-106 562.65,-100 562.65,-94 562.65,-94 562.65,-82 562.65,-82 562.65,-76 568.65,-70 574.65,-70 574.65,-70 650.63,-70 650.63,-70 656.63,-70 662.63,-76 662.63,-82 662.63,-82 662.63,-94 662.63,-94 662.63,-100 656.63,-106 650.63,-106" style=""/>
<text text-anchor="middle" x="612.64" y="-83.8" font-family="Times,serif" font-size="14.00" style="">LLVM IR Gen</text>
</g>
<!-- soxa&#45;&gt;llvm -->
<g id="edge5" class="edge" data-name="soxa-&gt;llvm">

<path fill="none" stroke="black" d="M527.02,-71.75C534.93,-73.27 543.09,-74.84 551.08,-76.37" style=""/>
<polygon fill="black" stroke="black" points="550.26,-79.78 560.74,-78.23 551.58,-72.9 550.26,-79.78" style=""/>
</g>
<!-- vm -->
<g id="node7" class="node" pointer-events="visible" data-name="vm">

<path fill="none" stroke="black" d="M637.02,-52C637.02,-52 588.25,-52 588.25,-52 582.25,-52 576.25,-46 576.25,-40 576.25,-40 576.25,-28 576.25,-28 576.25,-22 582.25,-16 588.25,-16 588.25,-16 637.02,-16 637.02,-16 643.02,-16 649.02,-22 649.02,-28 649.02,-28 649.02,-40 649.02,-40 649.02,-46 643.02,-52 637.02,-52" style=""/>
<text text-anchor="middle" x="612.64" y="-29.8" font-family="Times,serif" font-size="14.00" style="">Doxa VM</text>
</g>
<!-- soxa&#45;&gt;vm -->
<g id="edge6" class="edge" data-name="soxa-&gt;vm">

<path fill="none" stroke="black" d="M527.02,-50.25C539.55,-47.84 552.72,-45.32 564.84,-42.99" style=""/>
<polygon fill="black" stroke="black" points="565.43,-46.44 574.59,-41.12 564.11,-39.56 565.43,-46.44" style=""/>
</g>
</g>
</svg>